<mxfile host="Electron" agent="Mozilla/5.0 (Windows NT 10.0; Win64; x64) AppleWebKit/537.36 (KHTML, like Gecko) draw.io/26.2.15 Chrome/134.0.6998.205 Electron/35.2.1 Safari/537.36" version="26.2.15">
  <diagram name="Página-1" id="sW-ignruIitdygRcp8ZR">
    <mxGraphModel dx="872" dy="529" grid="1" gridSize="10" guides="1" tooltips="1" connect="1" arrows="1" fold="1" page="1" pageScale="1" pageWidth="827" pageHeight="1169" math="1" shadow="0">
      <root>
        <mxCell id="0" />
        <mxCell id="1" parent="0" />
        <mxCell id="s1RcI5e7r2paEjUxa1Q3-1" style="edgeStyle=orthogonalEdgeStyle;rounded=0;orthogonalLoop=1;jettySize=auto;html=1;entryX=0.5;entryY=0;entryDx=0;entryDy=0;curved=1;" parent="1" source="s1RcI5e7r2paEjUxa1Q3-5" target="s1RcI5e7r2paEjUxa1Q3-10" edge="1">
          <mxGeometry relative="1" as="geometry" />
        </mxCell>
        <mxCell id="s1RcI5e7r2paEjUxa1Q3-2" value="NÃO" style="edgeLabel;html=1;align=center;verticalAlign=middle;resizable=0;points=[];fontSize=15;labelBackgroundColor=none;" parent="s1RcI5e7r2paEjUxa1Q3-1" vertex="1" connectable="0">
          <mxGeometry x="-0.0055" y="3" relative="1" as="geometry">
            <mxPoint x="-39" y="-17" as="offset" />
          </mxGeometry>
        </mxCell>
        <mxCell id="s1RcI5e7r2paEjUxa1Q3-3" style="edgeStyle=orthogonalEdgeStyle;rounded=0;orthogonalLoop=1;jettySize=auto;html=1;entryX=0.5;entryY=0;entryDx=0;entryDy=0;curved=1;" parent="1" source="s1RcI5e7r2paEjUxa1Q3-5" target="s1RcI5e7r2paEjUxa1Q3-11" edge="1">
          <mxGeometry relative="1" as="geometry" />
        </mxCell>
        <mxCell id="s1RcI5e7r2paEjUxa1Q3-4" value="SIM" style="edgeLabel;html=1;align=center;verticalAlign=middle;resizable=0;points=[];fontSize=15;labelBackgroundColor=none;" parent="s1RcI5e7r2paEjUxa1Q3-3" vertex="1" connectable="0">
          <mxGeometry x="-0.2155" y="-2" relative="1" as="geometry">
            <mxPoint y="-18" as="offset" />
          </mxGeometry>
        </mxCell>
        <mxCell id="s1RcI5e7r2paEjUxa1Q3-5" value="$$X_4 \leq&amp;nbsp;0.8$$" style="ellipse;whiteSpace=wrap;html=1;fillColor=none;" parent="1" vertex="1">
          <mxGeometry x="268" y="435" width="120" height="80" as="geometry" />
        </mxCell>
        <mxCell id="s1RcI5e7r2paEjUxa1Q3-6" style="edgeStyle=orthogonalEdgeStyle;rounded=0;orthogonalLoop=1;jettySize=auto;html=1;entryX=0.5;entryY=0;entryDx=0;entryDy=0;curved=1;" parent="1" source="s1RcI5e7r2paEjUxa1Q3-10" target="s1RcI5e7r2paEjUxa1Q3-12" edge="1">
          <mxGeometry relative="1" as="geometry" />
        </mxCell>
        <mxCell id="s1RcI5e7r2paEjUxa1Q3-7" value="NÃO" style="edgeLabel;html=1;align=center;verticalAlign=middle;resizable=0;points=[];fontSize=15;labelBackgroundColor=none;" parent="s1RcI5e7r2paEjUxa1Q3-6" vertex="1" connectable="0">
          <mxGeometry x="-0.105" y="5" relative="1" as="geometry">
            <mxPoint y="-25" as="offset" />
          </mxGeometry>
        </mxCell>
        <mxCell id="s1RcI5e7r2paEjUxa1Q3-8" style="edgeStyle=orthogonalEdgeStyle;rounded=0;orthogonalLoop=1;jettySize=auto;html=1;entryX=0.5;entryY=0;entryDx=0;entryDy=0;curved=1;" parent="1" source="s1RcI5e7r2paEjUxa1Q3-10" target="s1RcI5e7r2paEjUxa1Q3-13" edge="1">
          <mxGeometry relative="1" as="geometry" />
        </mxCell>
        <mxCell id="s1RcI5e7r2paEjUxa1Q3-9" value="SIM" style="edgeLabel;html=1;align=center;verticalAlign=middle;resizable=0;points=[];fontSize=15;labelBackgroundColor=none;" parent="s1RcI5e7r2paEjUxa1Q3-8" vertex="1" connectable="0">
          <mxGeometry x="-0.1934" y="-1" relative="1" as="geometry">
            <mxPoint x="6" y="-21" as="offset" />
          </mxGeometry>
        </mxCell>
        <mxCell id="s1RcI5e7r2paEjUxa1Q3-10" value="$$X_4 \leq 1.7$$" style="ellipse;whiteSpace=wrap;html=1;fillColor=none;" parent="1" vertex="1">
          <mxGeometry x="439" y="545" width="120" height="80" as="geometry" />
        </mxCell>
        <mxCell id="s1RcI5e7r2paEjUxa1Q3-11" value="$$0$$" style="ellipse;whiteSpace=wrap;html=1;fontSize=20;fillColor=none;" parent="1" vertex="1">
          <mxGeometry x="97" y="545" width="120" height="80" as="geometry" />
        </mxCell>
        <mxCell id="s1RcI5e7r2paEjUxa1Q3-12" value="$$2$$" style="ellipse;whiteSpace=wrap;html=1;fontSize=20;fillColor=none;" parent="1" vertex="1">
          <mxGeometry x="268" y="655" width="120" height="80" as="geometry" />
        </mxCell>
        <mxCell id="s1RcI5e7r2paEjUxa1Q3-13" value="$$1$$" style="ellipse;whiteSpace=wrap;html=1;fontSize=20;fillColor=none;" parent="1" vertex="1">
          <mxGeometry x="610" y="655" width="120" height="80" as="geometry" />
        </mxCell>
      </root>
    </mxGraphModel>
  </diagram>
</mxfile>
